<svg width="145" height="25" viewBox="0 0 145 25" fill="none" xmlns="http://www.w3.org/2000/svg">
<path d="M0.856 24V20.608L4.952 17.12C6.65867 15.6907 8.12 14.4747 9.336 13.472C10.552 12.4693 11.48 11.5307 12.12 10.656C12.76 9.78133 13.08 8.84267 13.08 7.84C13.08 7.072 12.8987 6.432 12.536 5.92C12.1733 5.38667 11.704 4.992 11.128 4.736C10.5733 4.45867 9.98667 4.32 9.368 4.32C8.62133 4.32 7.992 4.45867 7.48 4.736C6.98933 5.01333 6.59467 5.376 6.296 5.824C6.01867 6.25067 5.816 6.69867 5.688 7.168C5.56 7.63733 5.496 8.04267 5.496 8.384H0.76C0.76 7.488 0.930667 6.56 1.272 5.6C1.61333 4.61867 2.136 3.712 2.84 2.88C3.544 2.02667 4.45067 1.33333 5.56 0.799999C6.66933 0.266665 7.992 -1.90735e-06 9.528 -1.90735e-06C11.0853 -1.90735e-06 12.504 0.309332 13.784 0.927999C15.064 1.52533 16.088 2.38933 16.856 3.52C17.6453 4.65067 18.04 5.984 18.04 7.52C18.04 8.97067 17.6773 10.2933 16.952 11.488C16.248 12.6613 15.256 13.8133 13.976 14.944C12.696 16.0533 11.224 17.2587 9.56 18.56L8.216 19.68H18.36V24H0.856ZM30.906 24.32C29.2847 24.32 27.7913 24.0533 26.426 23.52C25.082 22.9653 23.994 22.1867 23.162 21.184C22.3513 20.16 21.946 18.9333 21.946 17.504C21.946 16.3947 22.1593 15.4667 22.586 14.72C23.0127 13.9733 23.5033 13.3867 24.058 12.96C24.6127 12.512 25.1033 12.2027 25.53 12.032C25.978 11.84 26.202 11.744 26.202 11.744V11.552C26.202 11.552 26.01 11.4667 25.626 11.296C25.2633 11.1253 24.8367 10.848 24.346 10.464C23.8767 10.08 23.4607 9.568 23.098 8.928C22.7353 8.26667 22.554 7.46667 22.554 6.528C22.554 5.20533 22.9167 4.064 23.642 3.104C24.3887 2.12266 25.3913 1.36533 26.65 0.831999C27.93 0.277332 29.3487 -1.90735e-06 30.906 -1.90735e-06C32.4847 -1.90735e-06 33.9033 0.277332 35.162 0.831999C36.442 1.36533 37.4447 2.12266 38.17 3.104C38.9167 4.064 39.29 5.19467 39.29 6.496C39.29 7.456 39.098 8.26667 38.714 8.928C38.3513 9.568 37.9247 10.08 37.434 10.464C36.9647 10.848 36.538 11.1253 36.154 11.296C35.7913 11.4667 35.61 11.552 35.61 11.552V11.744C35.6313 11.744 35.8553 11.84 36.282 12.032C36.7087 12.2027 37.1993 12.512 37.754 12.96C38.3087 13.3867 38.7993 13.9733 39.226 14.72C39.6527 15.4667 39.866 16.3947 39.866 17.504C39.866 18.9333 39.4607 20.16 38.65 21.184C37.8393 22.1867 36.7513 22.9653 35.386 23.52C34.042 24.0533 32.5487 24.32 30.906 24.32ZM30.906 9.92C31.9727 9.92 32.858 9.632 33.562 9.056C34.2873 8.45867 34.65 7.72267 34.65 6.848C34.65 5.952 34.298 5.216 33.594 4.64C32.89 4.064 31.994 3.776 30.906 3.776C29.8393 3.776 28.954 4.064 28.25 4.64C27.546 5.216 27.194 5.952 27.194 6.848C27.194 7.744 27.546 8.48 28.25 9.056C28.954 9.632 29.8393 9.92 30.906 9.92ZM30.906 20.48C31.8447 20.48 32.6233 20.3093 33.242 19.968C33.882 19.6053 34.3513 19.1573 34.65 18.624C34.97 18.0907 35.13 17.5253 35.13 16.928C35.13 16.3733 34.97 15.84 34.65 15.328C34.3513 14.7947 33.882 14.3573 33.242 14.016C32.6233 13.6747 31.8447 13.504 30.906 13.504C29.9673 13.504 29.1887 13.6747 28.57 14.016C27.9513 14.3573 27.482 14.7947 27.162 15.328C26.842 15.84 26.682 16.3733 26.682 16.928C26.682 17.5253 26.842 18.0907 27.162 18.624C27.482 19.1573 27.9513 19.6053 28.57 19.968C29.21 20.3093 29.9887 20.48 30.906 20.48ZM47.001 24.32C46.1903 24.32 45.529 24.0533 45.017 23.52C44.505 22.9653 44.249 22.3253 44.249 21.6C44.249 20.832 44.505 20.1813 45.017 19.648C45.529 19.1147 46.1903 18.848 47.001 18.848C47.769 18.848 48.409 19.1147 48.921 19.648C49.4543 20.1813 49.721 20.832 49.721 21.6C49.721 22.3467 49.4543 22.9867 48.921 23.52C48.409 24.0533 47.769 24.32 47.001 24.32ZM63.3518 24.32C61.8158 24.32 60.5038 24.1387 59.4158 23.776C58.3491 23.392 57.4531 22.912 56.7278 22.336C56.0238 21.7387 55.4584 21.12 55.0318 20.48C54.6051 19.8187 54.2851 19.2 54.0718 18.624C53.8798 18.0267 53.7518 17.5467 53.6878 17.184C53.6451 16.8 53.6238 16.608 53.6238 16.608H58.6158C58.6158 16.608 58.6584 16.7893 58.7438 17.152C58.8504 17.5147 59.0638 17.9413 59.3838 18.432C59.7038 18.9013 60.1944 19.3173 60.8558 19.68C61.5171 20.0213 62.4131 20.192 63.5438 20.192C64.9304 20.192 65.9544 19.904 66.6158 19.328C67.2771 18.7307 67.6078 18.0267 67.6078 17.216C67.6078 16.4907 67.3518 15.9147 66.8398 15.488C66.3491 15.0613 65.5811 14.7413 64.5358 14.528L61.3678 13.92C60.0878 13.6853 58.8931 13.312 57.7838 12.8C56.6958 12.288 55.8104 11.584 55.1278 10.688C54.4451 9.77067 54.1038 8.59733 54.1038 7.168C54.1038 5.71733 54.4664 4.45867 55.1918 3.392C55.9171 2.304 56.9304 1.472 58.2318 0.895998C59.5544 0.298665 61.1011 -1.90735e-06 62.8718 -1.90735e-06C64.5358 -1.90735e-06 65.9118 0.245331 66.9998 0.735998C68.1091 1.20533 68.9838 1.792 69.6238 2.496C70.2851 3.17867 70.7651 3.872 71.0638 4.576C71.3838 5.28 71.5864 5.86667 71.6718 6.336C71.7784 6.80533 71.8318 7.04 71.8318 7.04H66.9678C66.9678 7.04 66.9251 6.89067 66.8398 6.592C66.7758 6.29333 66.6051 5.952 66.3278 5.568C66.0504 5.184 65.6238 4.84267 65.0478 4.544C64.4931 4.24533 63.7251 4.096 62.7438 4.096C61.3998 4.096 60.4291 4.39467 59.8318 4.992C59.2344 5.568 58.9358 6.19733 58.9358 6.88C58.9358 7.584 59.2344 8.128 59.8318 8.512C60.4291 8.896 61.2078 9.184 62.1678 9.376L65.5278 10.048C66.8078 10.2827 67.9811 10.6773 69.0478 11.232C70.1144 11.7867 70.9571 12.5333 71.5758 13.472C72.2158 14.3893 72.5358 15.5307 72.5358 16.896C72.5358 18.304 72.1838 19.5733 71.4798 20.704C70.7758 21.8133 69.7411 22.6987 68.3758 23.36C67.0104 24 65.3358 24.32 63.3518 24.32ZM75.8323 24V0.32H80.7603V9.76H89.9763V0.32H94.9043V24H89.9763V14.048H80.7603V24H75.8323ZM110.342 24.32C108.379 24.32 106.651 23.9787 105.158 23.296C103.664 22.592 102.406 21.664 101.382 20.512C100.379 19.3387 99.6218 18.0267 99.1098 16.576C98.6191 15.1253 98.3738 13.6427 98.3738 12.128C98.3738 10.6133 98.6191 9.14133 99.1098 7.712C99.6218 6.26133 100.379 4.96 101.382 3.808C102.406 2.656 103.664 1.73867 105.158 1.056C106.651 0.351999 108.379 -1.90735e-06 110.342 -1.90735e-06C112.326 -1.90735e-06 114.064 0.351999 115.558 1.056C117.051 1.73867 118.299 2.656 119.302 3.808C120.304 4.96 121.051 6.26133 121.542 7.712C122.054 9.14133 122.31 10.6133 122.31 12.128C122.31 13.6427 122.054 15.1253 121.542 16.576C121.051 18.0267 120.304 19.3387 119.302 20.512C118.299 21.664 117.051 22.592 115.558 23.296C114.064 23.9787 112.326 24.32 110.342 24.32ZM110.342 19.872C111.835 19.872 113.094 19.4987 114.118 18.752C115.142 18.0053 115.91 17.0453 116.422 15.872C116.934 14.6773 117.19 13.4293 117.19 12.128C117.19 10.8267 116.934 9.58933 116.422 8.416C115.91 7.24267 115.142 6.28267 114.118 5.536C113.094 4.78933 111.835 4.416 110.342 4.416C108.848 4.416 107.59 4.78933 106.566 5.536C105.563 6.28267 104.806 7.24267 104.294 8.416C103.782 9.58933 103.526 10.8267 103.526 12.128C103.526 13.4293 103.782 14.6773 104.294 15.872C104.806 17.0453 105.563 18.0053 106.566 18.752C107.59 19.4987 108.848 19.872 110.342 19.872ZM125.77 24V0.32H135.53C137.471 0.32 139.082 0.703999 140.362 1.472C141.663 2.24 142.634 3.232 143.274 4.448C143.935 5.64267 144.266 6.89067 144.266 8.192C144.266 9.536 143.935 10.816 143.274 12.032C142.634 13.2267 141.663 14.208 140.362 14.976C139.082 15.744 137.471 16.128 135.53 16.128H130.698V24H125.77ZM135.53 4.64H130.698V11.84H135.53C136.362 11.84 137.055 11.6693 137.61 11.328C138.164 10.9653 138.58 10.5173 138.858 9.984C139.156 9.42933 139.306 8.84267 139.306 8.224C139.306 7.62667 139.156 7.05067 138.858 6.496C138.58 5.94133 138.164 5.49333 137.61 5.152C137.055 4.81067 136.362 4.64 135.53 4.64Z" fill="black"/>
</svg>
